Coordinates
version=1
nRows=29
nColumns=22
inDegrees=yes

Units are S.I. units (second, meters, Newtons, ...)
If the header above contains a line with 'inDegrees', this indicates whether rotational values are in degrees (yes) or radians (no).

endheader
time	pelvis_tilt	pelvis_list	pelvis_rotation	pelvis_tx	pelvis_ty	pelvis_tz	hip_flexion_r	hip_adduction_r	hip_rotation_r	knee_angle_r	ankle_angle_r	subtalar_angle_r	hip_flexion_l	hip_adduction_l	hip_rotation_l	knee_angle_l	ankle_angle_l	subtalar_angle_l	lumbar_extension	lumbar_bending	lumbar_rotation
      2.05000000	      1.64769064	      5.62875022	    100.70769738	      0.52211308	      0.91716368	     -0.39641850	     14.44322638	      0.00790885	    -11.49311189	    -20.71259963	     -3.43000381	      5.35894468	      5.20410051	     -7.29498165	      2.46756226	    -63.68714972	     -6.20265876	     -8.65919443	     -9.23670900	     -0.93147832	     -3.92547201
      2.06000000	      1.46912758	      5.74528863	    101.01071923	      0.52410041	      0.91871311	     -0.40236706	     13.75887062	      0.07228950	    -11.69292817	    -20.49572324	     -3.10927695	      4.97606125	      6.41222820	     -7.20896015	      2.46628699	    -65.03688032	     -5.62483991	     -8.25865855	     -9.46393810	     -1.02409269	     -3.51210166
      2.07000000	      1.24383245	      5.84688285	    101.23835006	      0.52609942	      0.92024829	     -0.40817157	     13.09775970	      0.09744902	    -11.81012071	    -20.27793922	     -2.80271144	      4.60177580	      7.53024662	     -7.07213896	      2.34489427	    -66.11225714	     -4.91524793	     -7.85139749	     -9.67566618	     -1.17879269	     -3.04449921
      2.08000000	      0.97030722	      5.95541947	    101.38378823	      0.52810214	      0.92182341	     -0.41388712	     12.42412329	      0.07891091	    -11.87411280	    -20.04347757	     -2.52752385	      4.48866618	      8.51359456	     -6.89810929	      2.08446788	    -66.89474989	     -4.06057013	     -7.64157492	     -9.88820645	     -1.39326734	     -2.52573875
      2.09000000	      0.71821121	      5.99817299	    101.41640281	      0.53019091	      0.92325231	     -0.41946905	     11.85650768	      0.08054741	    -11.86664809	    -19.82839384	     -2.25699554	      4.07804001	      9.47272436	     -6.75776832	      1.69444894	    -67.43322849	     -3.16811721	     -7.20062130	    -10.00964227	     -1.60831760	     -1.91413281
      2.10000000	      0.44434746	      6.04155064	    101.38577475	      0.53226535	      0.92467413	     -0.42494867	     11.28996145	      0.05410175	    -11.82995761	    -19.60341019	     -2.01039491	      3.90169056	     10.31562418	     -6.60985284	      1.21228873	    -67.70460172	     -2.16413025	     -6.93126413	    -10.12098377	     -1.85041613	     -1.30124705
      2.11000000	      0.18365684	      6.05353760	    101.27176584	      0.53438439	      0.92600784	     -0.43031269	     10.77076556	      0.03805164	    -11.73704018	    -19.36656245	     -1.79330924	      3.73990124	     11.08907028	     -6.49658820	      0.63444154	    -67.73289976	     -1.10143887	     -6.66159882	    -10.18196388	     -2.09190692	     -0.66489561
      2.12000000	     -0.05499419	      6.04425508	    101.07336836	      0.53653436	      0.92723890	     -0.43554825	     10.29517211	      0.04116143	    -11.57782988	    -19.12895484	     -1.59084969	      3.57500565	     11.78829290	     -6.42176342	     -0.01264260	    -67.54002087	     -0.00306886	     -6.36650282	    -10.20381467	     -2.31899290	      0.02608525
      2.13000000	     -0.26118858	      6.01551854	    100.81537204	      0.53869871	      0.92836073	     -0.44067697	      9.85547108	      0.06918795	    -11.39955768	    -18.88235051	     -1.40217046	      3.44457823	     12.41999125	     -6.40797564	     -0.71935621	    -67.14113529	      1.13419199	     -6.06626377	    -10.18414127	     -2.51679482	      0.69504004
      2.14000000	     -0.43110988	      5.97286860	    100.51229660	      0.54087036	      0.92936876	     -0.44567246	      9.44584951	      0.12765178	    -11.20520448	    -18.62561063	     -1.23341689	      3.32780822	     12.98707037	     -6.44817270	     -1.44381047	    -66.55457321	      2.28537008	     -5.74089589	    -10.13600949	     -2.68099261	      1.35419860
      2.15000000	     -0.56161022	      5.92033436	    100.17914069	      0.54301783	      0.93025956	     -0.45053837	      9.05876499	      0.21778643	    -11.00397314	    -18.35666701	     -1.07519510	      3.22659759	     13.49384754	     -6.54743755	     -2.17595855	    -65.80293372	      3.43502233	     -5.39708479	    -10.06492122	     -2.80273942	      1.97598100
      2.16000000	     -0.65450941	      5.86275372	     99.83155913	      0.54512738	      0.93104196	     -0.45527399	      8.68666647	      0.33800425	    -10.80941137	    -18.07518384	     -0.92795705	      3.13483090	     13.93957691	     -6.69726572	     -2.89017949	    -64.90101217	      4.56651822	     -5.03814560	     -9.98067454	     -2.88342897	      2.54932177
      2.17000000	     -0.71499649	      5.80526795	     99.48485181	      0.54717248	      0.93172635	     -0.45989070	      8.32013808	      0.48175533	    -10.62699657	    -17.78295806	     -0.78937515	      3.04903201	     14.32272488	     -6.88932206	     -3.57387276	    -63.86560797	      5.67234072	     -4.67153431	     -9.89009413	     -2.92574886	      3.06501761
      2.18000000	     -0.74988233	      5.75306665	     99.14760801	      0.54914518	      0.93233129	     -0.46439792	      7.95119302	      0.64349542	    -10.45926487	    -17.48007240	     -0.65900158	      2.96552111	     14.63752985	     -7.11297843	     -4.21703013	    -62.70833438	      6.73789117	     -4.30237775	     -9.80142489	     -2.93679236	      3.51495292
      2.19000000	     -0.76362362	      5.70412812	     98.82924122	      0.55103046	      0.93286075	     -0.46880310	      7.58195330	      0.81707183	    -10.31317125	    -17.17126018	     -0.52696460	      2.89107215	     14.88929044	     -7.35861510	     -4.81270587	    -61.44308281	      7.75771769	     -3.96441186	     -9.71411989	     -2.92242415	      3.89432971
      2.20000000	     -0.76714416	      5.66512168	     98.52979682	      0.55282697	      0.93334083	     -0.47312698	      7.20172680	      0.99341870	    -10.17936989	    -16.85550643	     -0.40043549	      2.81768218	     15.06557287	     -7.61065633	     -5.35648292	    -60.07681234	      8.72843448	     -3.64879659	     -9.63539946	     -2.89493327	      4.20490723
      2.21000000	     -0.76121803	      5.62951235	     98.25111732	      0.55453807	      0.93377235	     -0.47736883	      6.82253518	      1.17089123	    -10.05819767	    -16.54420558	     -0.26772306	      2.75155700	     15.17603106	     -7.86751937	     -5.85509039	    -58.61880610	      9.64346865	     -3.38576680	     -9.55862456	     -2.85706124	      4.45355899
      2.22000000	     -0.75651681	      5.59829757	     97.99696677	      0.55614823	      0.93416613	     -0.48154314	      6.44166589	      1.33817732	     -9.94235064	    -16.23791410	     -0.13679820	      2.68777442	     15.21661011	     -8.11193063	     -6.30299183	    -57.07836642	     10.50819916	     -3.17442687	     -9.48391981	     -2.81827261	      4.63668276
      2.23000000	     -0.75124667	      5.56873655	     97.75534426	      0.55768346	      0.93452586	     -0.48565153	      6.06728768	      1.49944142	     -9.82100343	    -15.94444489	     -0.00178094	      2.62544448	     15.18900523	     -8.34699822	     -6.71441395	    -55.46173243	     11.32424878	     -3.02412272	     -9.40782018	     -2.78155840	      4.77196408
      2.24000000	     -0.74260595	      5.53281300	     97.51784496	      0.55915955	      0.93483771	     -0.48969207	      5.71790510	      1.65569957	     -9.69877776	    -15.68003473	      0.14262599	      2.56661216	     15.10496779	     -8.57887086	     -7.10492179	    -53.78199017	     12.09172715	     -2.94321423	     -9.32001720	     -2.74526787	      4.86695559
      2.25000000	     -0.73662367	      5.48771933	     97.29192008	      0.56055590	      0.93511492	     -0.49366722	      5.38659006	      1.80151380	     -9.56908517	    -15.42725880	      0.28507874	      2.50539693	     14.96790506	     -8.79025406	     -7.46002099	    -52.04079574	     12.81054062	     -2.92706994	     -9.21635674	     -2.71460847	      4.92646936
      2.26000000	     -0.73957124	      5.44990261	     97.07138364	      0.56188587	      0.93539570	     -0.49757499	      5.04491870	      1.93686767	     -9.39374772	    -15.16514982	      0.41643493	      2.42871258	     14.75654007	     -8.96982025	     -7.76914459	    -50.23716236	     13.46974373	     -2.98553356	     -9.12001017	     -2.69633490	      4.96331133
      2.27000000	     -0.72635054	      5.38538916	     96.83911755	      0.56316691	      0.93559043	     -0.50140567	      4.76730423	      2.07545770	     -9.23004126	    -14.95863658	      0.56212188	      2.35986276	     14.52362094	     -9.16234904	     -8.09366593	    -48.40497631	     14.10620968	     -3.09564417	     -8.98498536	     -2.66311680	      4.99269161
      2.28000000	     -0.71672525	      5.32453452	     96.60365418	      0.56440142	      0.93578266	     -0.50515505	      4.48577372	      2.20998702	     -9.02473323	    -14.74187853	      0.69201646	      2.27651518	     14.22982678	     -9.32896498	     -8.38673121	    -46.52874162	     14.68676516	     -3.27831971	     -8.85329088	     -2.63739544	      5.00339586
      2.29000000	     -0.69311026	      5.24673220	     96.35919951	      0.56558578	      0.93591422	     -0.50881445	      4.24451699	      2.34879005	     -8.81814170	    -14.55409749	      0.82188662	      2.19565323	     13.91174765	     -9.49589286	     -8.67613546	    -44.63541180	     15.23718431	     -3.49452950	     -8.69862765	     -2.59663163	      5.01703678
      2.30000000	     -0.66211742	      5.16528434	     96.10863803	      0.56671743	      0.93601426	     -0.51237953	      4.01749929	      2.48936531	     -8.59022411	    -14.37411788	      0.94205339	      2.11233227	     13.55830446	     -9.65154402	     -8.94926711	    -42.73032890	     15.74042403	     -3.74467770	     -8.54026375	     -2.54693694	      5.02777069
      2.31000000	     -0.62078613	      5.07721506	     95.84962647	      0.56780543	      0.93607559	     -0.51583950	      3.80817005	      2.63404829	     -8.35441594	    -14.19917709	      1.05659932	      2.03283771	     13.17915768	     -9.79803399	     -9.20822976	    -40.82408050	     16.19874541	     -4.00644133	     -8.37584606	     -2.48513683	      5.03908091
      2.32000000	     -0.57331732	      4.99226482	     95.58882152	      0.56883448	      0.93611532	     -0.51919784	      3.59826628	      2.77904963	     -8.11090584	    -14.01826410	      1.16618168	      1.95841548	     12.77222861	     -9.93117406	     -9.45040402	    -38.93276374	     16.59179670	     -4.27491713	     -8.21835101	     -2.41309712	      5.04263655
      2.33000000	     -0.51653429	      4.90330226	     95.33195455	      0.56980586	      0.93611369	     -0.52243948	      3.40372259	      2.92513799	     -7.87071458	    -13.84511349	      1.27366349	      1.89978245	     12.35578323	    -10.05290273	     -9.66412002	    -37.07364470	     16.92749361	     -4.51356780	     -8.06354845	     -2.32959044	      5.03364758
